<?xml version="1.0" standalone="no"?>
<!DOCTYPE svg PUBLIC "-//W3C//DTD SVG 20010904//EN"
 "http://www.w3.org/TR/2001/REC-SVG-20010904/DTD/svg10.dtd">
<svg version="1.0" xmlns="http://www.w3.org/2000/svg"
 width="1024.000000pt" height="1024.000000pt" viewBox="0 0 1024.000000 1024.000000"
 preserveAspectRatio="xMidYMid meet">

<g transform="translate(0.000000,1024.000000) scale(0.100000,-0.100000)"
fill="#000000" stroke="none">
<path d="M4876 8158 c-306 -28 -681 -181 -934 -381 -529 -418 -792 -1073 -686
-1707 59 -353 231 -688 484 -941 247 -247 530 -400 878 -473 201 -43 290 -46
1215 -46 l877 0 0 975 c0 821 -2 981 -14 1010 -28 67 -8 65 -688 65 l-614 0
-194 -207 c-107 -114 -217 -232 -245 -262 l-50 -54 47 7 c69 10 286 -12 396
-40 110 -28 270 -101 373 -170 39 -25 109 -83 156 -128 83 -78 203 -225 203
-249 0 -9 -149 -12 -598 -11 -579 0 -600 1 -686 22 -237 59 -420 206 -531 428
-77 152 -103 341 -71 496 68 318 325 577 665 670 70 19 116 22 546 29 494 7
569 14 714 60 295 94 517 338 586 645 14 63 37 255 32 261 -7 6 -1792 7 -1861
1z m191 -2634 c-3 -3 -12 -4 -19 -1 -8 3 -5 6 6 6 11 1 17 -2 13 -5z m206 -1
c-7 -2 -19 -2 -25 0 -7 3 -2 5 12 5 14 0 19 -2 13 -5z m155 0 c-10 -2 -26 -2
-35 0 -10 3 -2 5 17 5 19 0 27 -2 18 -5z m49 1 c-3 -3 -12 -4 -19 -1 -8 3 -5
6 6 6 11 1 17 -2 13 -5z m156 -1 c-7 -2 -21 -2 -30 0 -10 3 -4 5 12 5 17 0 24
-2 18 -5z m215 0 c-16 -2 -40 -2 -55 0 -16 2 -3 4 27 4 30 0 43 -2 28 -4z m69
1 c-3 -3 -12 -4 -19 -1 -8 3 -5 6 6 6 11 1 17 -2 13 -5z"/>
<path d="M2971 4190 c-254 -35 -423 -179 -476 -402 -19 -80 -19 -154 0 -243
64 -305 345 -458 733 -401 62 9 141 26 177 37 l65 20 0 162 c0 182 2 189 71
232 25 17 36 30 33 40 -9 22 -434 23 -434 1 0 -8 25 -26 55 -40 38 -17 58 -33
65 -51 6 -15 10 -93 10 -175 l0 -149 -57 -11 c-31 -7 -96 -10 -143 -8 -141 7
-217 54 -284 178 -64 118 -84 307 -47 452 39 152 104 239 207 278 51 19 73 21
159 18 146 -7 196 -38 276 -172 22 -36 40 -56 53 -56 17 0 18 6 12 88 -12 156
-12 158 -54 170 -100 30 -318 46 -421 32z"/>
<path d="M3698 4184 c-15 -15 -7 -24 42 -49 27 -14 54 -34 60 -44 15 -29 14
-802 -2 -836 -7 -15 -31 -34 -60 -48 -31 -14 -47 -27 -46 -37 5 -23 431 -22
436 0 2 11 -14 23 -48 37 -34 15 -53 29 -60 48 -5 14 -10 107 -10 206 0 174 1
179 21 179 38 0 57 -20 110 -112 126 -225 184 -325 202 -351 l19 -28 141 3
c117 3 142 6 144 18 2 9 -15 23 -40 36 -37 18 -57 43 -179 235 -75 117 -137
216 -137 219 -1 3 18 11 42 17 51 14 121 72 147 122 77 152 -3 308 -190 366
-44 14 -107 19 -320 22 -146 3 -268 2 -272 -3z m469 -85 c131 -49 154 -266 37
-355 -32 -25 -48 -29 -116 -33 l-78 -3 0 201 0 201 64 0 c36 0 77 -5 93 -11z"/>
<path d="M4797 4183 c-16 -16 -4 -31 38 -48 78 -29 76 -20 73 -474 -3 -451 2
-422 -86 -461 -93 -41 -63 -45 358 -45 l394 0 19 123 c11 68 16 126 12 130 -4
4 -17 -6 -29 -23 -41 -58 -111 -120 -151 -134 -22 -7 -102 -16 -177 -18 l-138
-5 0 206 0 206 99 0 c92 0 102 -2 130 -25 16 -14 33 -35 36 -45 4 -11 13 -20
21 -20 11 0 14 24 14 135 0 114 -2 135 -15 135 -9 0 -19 -10 -24 -22 -5 -13
-21 -34 -36 -48 -24 -23 -36 -25 -126 -28 l-99 -4 0 196 0 196 113 0 c165 0
217 -21 277 -113 20 -30 36 -45 41 -40 6 6 6 54 2 119 l-8 109 -366 3 c-201 1
-368 -1 -372 -5z"/>
<path d="M5757 4183 c-15 -14 -5 -24 37 -43 79 -33 76 -15 76 -458 0 -452 1
-449 -74 -477 -32 -13 -46 -23 -44 -34 3 -14 44 -16 398 -16 l394 0 18 120
c10 67 14 123 9 128 -5 5 -28 -17 -53 -50 -31 -41 -60 -66 -102 -87 -54 -28
-66 -30 -202 -34 l-144 -5 0 207 0 206 95 0 c112 0 157 -15 180 -59 8 -17 22
-31 30 -31 13 0 15 23 15 135 0 125 -1 135 -19 135 -11 0 -24 -12 -31 -31 -23
-53 -61 -69 -172 -69 l-98 0 0 195 0 195 114 0 c62 0 128 -5 147 -11 50 -17
96 -55 121 -99 13 -22 29 -40 37 -40 11 0 13 19 9 104 -3 57 -9 109 -12 115
-8 12 -717 16 -729 4z"/>
<path d="M6673 4174 c-4 -11 -1 -20 8 -23 8 -3 34 -12 59 -21 30 -10 52 -26
67 -49 23 -34 23 -35 23 -411 0 -375 0 -377 -23 -411 -15 -23 -39 -40 -77 -54
-32 -12 -55 -27 -55 -35 0 -13 33 -15 210 -15 183 0 210 2 213 16 2 11 -14 21
-58 34 -67 20 -96 48 -105 99 -3 17 -4 167 -3 334 l3 303 315 -395 315 -396
47 0 47 0 3 448 c3 518 0 496 95 538 46 21 53 27 43 40 -11 12 -46 14 -213 12
-149 -2 -201 -6 -205 -15 -2 -7 2 -15 10 -18 125 -43 130 -46 149 -90 18 -40
19 -66 17 -309 l-3 -266 -110 137 c-60 75 -188 232 -282 349 l-173 212 -155 1
c-139 2 -156 0 -162 -15z"/>
<path d="M5971 2900 c-75 -18 -129 -88 -117 -152 10 -55 43 -88 125 -126 123
-56 149 -95 95 -149 -22 -22 -32 -25 -74 -21 -64 6 -97 30 -121 84 -11 24 -22
44 -24 44 -3 0 -5 -31 -5 -70 l0 -69 43 -12 c61 -16 195 -7 230 16 59 38 74
117 34 176 -16 24 -49 47 -112 79 -99 50 -120 74 -103 120 26 77 162 57 198
-30 19 -47 31 -36 25 23 -9 75 -8 74 -78 86 -71 12 -68 12 -116 1z"/>
<path d="M2500 2896 c0 -2 15 -13 34 -24 l34 -20 4 -159 c3 -181 13 -210 84
-251 53 -31 177 -29 221 4 58 44 66 72 71 252 l5 164 33 14 c19 8 34 16 34 19
0 3 -43 5 -95 5 -98 0 -117 -7 -65 -27 l30 -11 0 -172 0 -172 -29 -29 c-49
-48 -146 -38 -176 20 -22 44 -22 333 1 355 8 9 22 16 30 16 8 0 14 5 14 10 0
6 -45 10 -115 10 -63 0 -115 -2 -115 -4z"/>
<path d="M3110 2890 c0 -5 6 -10 14 -10 7 0 25 -9 40 -21 l26 -20 0 -180 c0
-166 -1 -180 -20 -199 -11 -11 -24 -20 -30 -20 -5 0 -10 -4 -10 -10 0 -6 35
-10 85 -10 50 0 85 4 85 10 0 6 -6 10 -13 10 -8 0 -23 10 -35 23 -21 22 -22
33 -21 173 0 131 2 147 14 129 8 -11 70 -92 138 -180 108 -141 127 -160 155
-163 l32 -3 2 218 3 218 32 15 c18 8 33 18 33 23 0 4 -43 7 -95 7 -57 0 -95
-4 -95 -10 0 -5 6 -10 14 -10 8 0 23 -8 35 -17 21 -17 22 -25 19 -154 l-3
-137 -124 164 -123 164 -79 0 c-46 0 -79 -4 -79 -10z"/>
<path d="M3772 2887 c9 -7 25 -17 35 -23 16 -10 18 -29 21 -185 3 -184 -4
-227 -38 -236 -49 -13 -11 -23 85 -23 58 0 105 3 105 6 0 3 -11 15 -25 26
l-25 19 0 195 0 195 35 15 c19 8 35 16 35 19 0 3 -55 5 -122 5 -99 -1 -120 -3
-106 -13z"/>
<path d="M4120 2893 c0 -5 15 -15 32 -23 30 -14 39 -32 118 -230 51 -128 92
-216 101 -218 9 -1 22 17 36 50 12 29 51 125 88 212 36 88 70 165 76 172 6 7
24 16 40 19 56 13 28 25 -56 25 -80 0 -111 -11 -65 -23 11 -3 20 -13 20 -24 1
-20 -102 -283 -110 -283 -3 0 -29 64 -57 142 -53 142 -55 168 -17 168 8 0 14
5 14 10 0 6 -43 10 -110 10 -60 0 -110 -3 -110 -7z"/>
<path d="M4740 2893 c0 -5 14 -16 30 -25 l30 -17 0 -183 c0 -150 -3 -188 -16
-206 -8 -12 -22 -22 -30 -22 -8 0 -14 -4 -14 -10 0 -12 356 -14 364 -1 3 4 8
35 12 67 l6 59 -28 -34 c-34 -42 -79 -61 -143 -61 -60 0 -64 7 -59 115 l3 70
50 -3 c39 -2 55 -8 72 -27 12 -14 25 -25 28 -25 3 0 5 34 5 75 0 41 -2 75 -5
75 -3 0 -16 -12 -28 -26 -18 -20 -32 -26 -72 -27 l-50 -2 -3 89 -3 89 73 -5
c71 -6 73 -7 110 -49 l38 -44 0 36 c0 20 -3 51 -6 68 l-6 31 -179 0 c-99 0
-179 -3 -179 -7z"/>
<path d="M5270 2891 c0 -5 9 -13 21 -16 32 -11 39 -46 39 -215 0 -167 -8 -209
-40 -217 -49 -13 -11 -23 85 -23 63 0 105 4 105 10 0 6 -4 10 -10 10 -5 0 -19
9 -30 20 -16 16 -20 33 -20 96 0 71 1 75 21 72 16 -2 36 -31 76 -105 l55 -103
74 0 c70 0 96 12 56 24 -10 4 -30 19 -44 34 -23 25 -108 156 -108 166 0 3 16
13 35 22 43 20 65 59 65 114 0 51 -37 93 -96 109 -48 13 -284 15 -284 2z m235
-35 c61 -26 75 -100 29 -155 -22 -26 -33 -31 -70 -31 l-44 0 0 93 c0 52 3 97
7 100 10 11 41 8 78 -7z"/>
<path d="M6310 2890 c0 -5 6 -10 13 -10 8 0 21 -8 30 -18 25 -27 25 -382 1
-406 -8 -9 -22 -16 -30 -16 -8 0 -14 -4 -14 -10 0 -6 43 -10 110 -10 103 0
138 10 89 25 -32 11 -39 46 -39 204 0 187 4 211 42 225 51 19 29 26 -87 26
-70 0 -115 -4 -115 -10z"/>
<path d="M6695 2853 c-4 -27 -9 -55 -11 -65 -8 -29 13 -29 26 1 19 46 43 62
97 64 l48 2 3 -184 c2 -152 0 -188 -13 -207 -9 -13 -22 -24 -30 -24 -8 0 -15
-4 -15 -10 0 -6 43 -10 110 -10 67 0 110 4 110 10 0 6 -6 10 -13 10 -8 0 -21
8 -30 18 -15 16 -17 46 -17 210 l0 192 30 0 c48 0 97 -25 115 -59 8 -17 19
-31 24 -31 8 0 4 90 -4 118 -3 9 -55 12 -214 12 l-210 0 -6 -47z"/>
<path d="M7240 2893 c0 -5 17 -15 38 -24 36 -15 39 -22 106 -187 61 -151 68
-175 58 -197 -7 -14 -23 -30 -37 -37 -14 -6 -25 -14 -25 -17 0 -3 37 -6 81 -6
l82 0 -1 85 c-2 81 1 90 51 210 43 101 58 129 84 145 18 11 32 23 33 28 0 4
-37 7 -82 7 l-83 0 29 -24 30 -23 -28 -74 c-16 -41 -37 -96 -47 -124 -17 -48
-18 -49 -27 -25 -55 138 -82 214 -82 225 0 7 10 20 23 28 21 15 15 16 -90 16
-62 1 -113 -2 -113 -6z"/>
</g>
</svg>
